<?xml version="1.0" encoding="UTF-8"?>
<!--Generator: Apple Native CoreSVG 232.5-->
<!DOCTYPE svg
PUBLIC "-//W3C//DTD SVG 1.1//EN"
       "http://www.w3.org/Graphics/SVG/1.1/DTD/svg11.dtd">
<svg version="1.1" xmlns="http://www.w3.org/2000/svg" xmlns:xlink="http://www.w3.org/1999/xlink" width="20.5" height="17.0234">
 <g>
  <rect height="17.0234" opacity="0" width="20.5" x="0" y="0"/>
  <path d="M13.7656 17.0234C15.0469 17.0234 16.0938 15.9766 16.0938 14.6953C16.0938 13.4219 15.0469 12.375 13.7656 12.375C12.4922 12.375 11.4453 13.4219 11.4453 14.6953C11.4453 15.9766 12.4922 17.0234 13.7656 17.0234ZM13.7656 15.9141C13.0859 15.9141 12.5547 15.375 12.5547 14.6953C12.5547 14.0078 13.0859 13.4766 13.7656 13.4766C14.4531 13.4766 14.9844 14.0078 14.9844 14.6953C14.9844 15.375 14.4531 15.9141 13.7656 15.9141ZM12.1562 14L0.695312 14C0.304688 14 0 14.3047 0 14.6953C0 15.0781 0.304688 15.3828 0.695312 15.3828L12.1562 15.3828ZM19.4297 14L15.4922 14L15.4922 15.3828L19.4297 15.3828C19.7891 15.3828 20.0938 15.0781 20.0938 14.6953C20.0938 14.3047 19.7891 14 19.4297 14ZM6.52344 10.8594C7.80469 10.8594 8.85156 9.82031 8.85156 8.53906C8.85156 7.25781 7.80469 6.21094 6.52344 6.21094C5.25 6.21094 4.20312 7.25781 4.20312 8.53906C4.20312 9.82031 5.25 10.8594 6.52344 10.8594ZM6.52344 9.75781C5.84375 9.75781 5.3125 9.21094 5.3125 8.53125C5.3125 7.84375 5.84375 7.3125 6.52344 7.3125C7.21094 7.3125 7.74219 7.84375 7.74219 8.53125C7.74219 9.21094 7.21094 9.75781 6.52344 9.75781ZM0.664062 7.84375C0.304688 7.84375 0 8.14844 0 8.53125C0 8.92188 0.304688 9.22656 0.664062 9.22656L4.82031 9.22656L4.82031 7.84375ZM19.3984 7.84375L8.14062 7.84375L8.14062 9.22656L19.3984 9.22656C19.7891 9.22656 20.0938 8.92188 20.0938 8.53125C20.0938 8.14844 19.7891 7.84375 19.3984 7.84375ZM13.7656 4.6875C15.0469 4.6875 16.0938 3.64062 16.0938 2.35938C16.0938 1.08594 15.0469 0.0390625 13.7656 0.0390625C12.4922 0.0390625 11.4453 1.08594 11.4453 2.35938C11.4453 3.64062 12.4922 4.6875 13.7656 4.6875ZM13.7656 3.57812C13.0859 3.57812 12.5547 3.03906 12.5547 2.35938C12.5547 1.67188 13.0859 1.14062 13.7656 1.14062C14.4531 1.14062 14.9844 1.67188 14.9844 2.35938C14.9844 3.03906 14.4531 3.57812 13.7656 3.57812ZM12.1797 1.67969L0.695312 1.67969C0.304688 1.67969 0 1.98438 0 2.375C0 2.75781 0.304688 3.0625 0.695312 3.0625L12.1797 3.0625ZM19.4297 1.67969L15.4062 1.67969L15.4062 3.0625L19.4297 3.0625C19.7891 3.0625 20.0938 2.75781 20.0938 2.375C20.0938 1.98438 19.7891 1.67969 19.4297 1.67969Z" fill="#ffffff"/>
 </g>
</svg>
