<?xml version="1.0" encoding="UTF-8"?>
<!--Generator: Apple Native CoreSVG 232.5-->
<!DOCTYPE svg
PUBLIC "-//W3C//DTD SVG 1.1//EN"
       "http://www.w3.org/Graphics/SVG/1.1/DTD/svg11.dtd">
<svg version="1.1" xmlns="http://www.w3.org/2000/svg" xmlns:xlink="http://www.w3.org/1999/xlink" width="473.625" height="249.625">
 <g>
  <rect height="249.625" opacity="0" width="473.625" x="0" y="0"/>
  <path d="M58.625 249.625C64.75 249.625 70 247.375 76 244L241.25 146.75C251.25 140.75 255.75 133.625 255.75 125C255.75 116.375 251.25 109.375 241.25 103.375L76 6.125C70 2.625 64.75 0.5 58.625 0.5C47 0.5 37 9.25 37 26.25L37 223.75C37 240.75 47 249.625 58.625 249.625ZM276.5 249.625C282.625 249.625 288 247.375 293.875 244L459.125 146.75C469.125 140.75 473.625 133.625 473.625 125C473.625 116.375 469.125 109.375 459.125 103.375L293.875 6.125C287.875 2.625 282.625 0.5 276.5 0.5C264.875 0.5 254.875 9.25 254.875 26.25L254.875 223.75C254.875 240.75 264.875 249.625 276.5 249.625Z" fill="#ffffff" fill-opacity="0.85"/>
 </g>
</svg>
