<?xml version="1.0" encoding="UTF-8"?>
<!--Generator: Apple Native CoreSVG 232.5-->
<!DOCTYPE svg
PUBLIC "-//W3C//DTD SVG 1.1//EN"
       "http://www.w3.org/Graphics/SVG/1.1/DTD/svg11.dtd">
<svg version="1.1" xmlns="http://www.w3.org/2000/svg" xmlns:xlink="http://www.w3.org/1999/xlink" width="473.625" height="249.625">
 <g>
  <rect height="249.625" opacity="0" width="473.625" x="0" y="0"/>
  <path d="M197.125 249.625C208.75 249.625 218.75 240.75 218.75 223.75L218.75 26.25C218.75 9.25 208.75 0.5 197.125 0.5C191 0.5 185.75 2.625 179.75 6.125L14.5 103.375C4.5 109.375 0 116.375 0 125C0 133.625 4.5 140.75 14.5 146.75L179.75 244C185.75 247.375 191 249.625 197.125 249.625ZM415 249.625C426.625 249.625 436.625 240.75 436.625 223.75L436.625 26.25C436.625 9.25 426.625 0.5 415 0.5C408.875 0.5 403.625 2.625 397.625 6.125L232.5 103.375C222.375 109.375 217.875 116.375 217.875 125C217.875 133.625 222.5 140.75 232.5 146.75L397.625 244C403.625 247.375 408.875 249.625 415 249.625Z" fill="#ffffff" fill-opacity="0.85"/>
 </g>
</svg>
