<svg width="21.937" xmlns="http://www.w3.org/2000/svg" height="16" fill="none" viewBox="0 0 21.937 16"><g style="fill: rgb(0, 0, 0);"><path d="M18.804 15.901c.252.18.593.11.787-.174a13.678 13.678 0 0 0 2.346-7.723c0-3.017-.941-5.602-2.346-7.729-.194-.29-.535-.355-.787-.174-.264.18-.303.522-.103.812 1.283 1.947 2.147 4.306 2.147 7.091 0 2.778-.864 5.144-2.147 7.085-.2.29-.161.631.103.812ZM15.787 13.69c.265.18.593.122.78-.148 1.07-1.444 1.709-3.475 1.709-5.538 0-2.069-.632-4.113-1.709-5.537-.187-.271-.515-.336-.78-.155-.258.18-.303.509-.096.806.947 1.315 1.482 3.062 1.482 4.886 0 1.824-.548 3.565-1.482 4.886-.2.291-.162.626.096.8ZM12.803 11.517c.245.168.58.11.767-.161.638-.838 1.038-2.056 1.038-3.352 0-1.302-.4-2.514-1.038-3.359a.545.545 0 0 0-.767-.154c-.284.2-.329.548-.11.844.529.722.812 1.644.812 2.669 0 1.019-.29 1.934-.812 2.669-.213.296-.174.638.11.844ZM8.89 15.25c.502 0 .844-.368.844-.858V1.661c0-.49-.342-.89-.857-.89-.355 0-.6.155-.967.503L4.306 4.691a.31.31 0 0 1-.232.083H1.631C.6 4.774 0 5.374 0 6.47v3.12c0 1.089.6 1.689 1.631 1.689h2.443c.097 0 .174.032.232.09l3.604 3.41c.335.316.625.471.98.471Z" style="fill: rgb(255, 255, 255); fill-opacity: 0.85;" class="fills"/></g></svg>