<svg width="255" xmlns="http://www.w3.org/2000/svg" height="259" id="screenshot-d13e393b-6a61-8076-8005-51e8b692555d" viewBox="-0 0 255 259" xmlns:xlink="http://www.w3.org/1999/xlink" fill="none" version="1.1"><g xmlns:xlink="http://www.w3.org/1999/xlink" width="189.875" height="259.125" id="shape-d13e393b-6a61-8076-8005-51e8b692555d" data-testid="pause" style="fill: rgb(0, 0, 0);" ry="0" rx="0" version="1.1"><g id="shape-d13e393b-6a61-8076-8005-51e8b692d284" data-testid="base-background" style="display: none;"><g class="fills" id="fills-d13e393b-6a61-8076-8005-51e8b692d284"><rect width="255" height="259" x="0" transform="matrix(1.000000, 0.000000, 0.000000, 1.000000, 0.000000, 0.000000)" style="fill: none;" ry="0" fill="none" rx="0" y="0"/></g></g><g id="shape-d13e393b-6a61-8076-8005-51e8b6933311" data-testid="svg-g" rx="0" ry="0" style="fill: rgb(0, 0, 0);"><g id="shape-d13e393b-6a61-8076-8005-51e8b6933312" data-testid="svg-rect" style="opacity: 0;"><g class="fills" id="fills-d13e393b-6a61-8076-8005-51e8b6933312"><rect rx="0" ry="0" x="0" y="0" transform="matrix(1.000000, 0.000000, 0.000000, 1.000000, 0.000000, 0.000000)" width="215.19166666666672" height="259"/></g></g><g id="shape-d13e393b-6a61-8076-8005-51e8b693b101" data-testid="svg-path"><g class="fills" id="fills-d13e393b-6a61-8076-8005-51e8b693b101"><path d="M22.667,258.875L63.467,258.875C78.625,258.875,86.133,252.253,86.133,238.885L86.133,19.990C86.133,6.247,78.625,0.000,63.467,0.000L22.667,0.000C7.508,0.000,-0.000,6.747,-0.000,19.990L-0.000,238.885C-0.000,252.253,7.508,258.875,22.667,258.875ZL22.667,258.875ZM191.533,258.875L232.333,258.875C247.492,258.875,255.000,252.253,255.000,238.885L255.000,19.990C255.000,6.247,247.492,0.000,232.333,0.000L191.533,0.000C176.375,0.000,168.867,6.747,168.867,19.990L168.867,238.885C168.867,252.253,176.375,258.875,191.533,258.875ZL191.533,258.875Z" style="fill: rgb(255, 255, 255); fill-opacity: 0.85;"/></g></g></g></g></svg>